<?xml version="1.0" encoding="UTF-8" ?>
<!DOCTYPE svg PUBLIC "-//W3C//DTD SVG 1.1//EN" "http://www.w3.org/Graphics/SVG/1.1/DTD/svg11.dtd">
<svg width="1000pt" height="1000pt" viewBox="0 0 1000 1000" version="1.1" xmlns="http://www.w3.org/2000/svg">
<path fill="#ffffff" d=" M 0.00 0.00 L 1000.00 0.00 L 1000.00 1000.00 L 0.00 1000.00 L 0.00 0.00 Z" />
<path fill="#124190" d=" M 596.42 7.46 C 631.46 5.77 665.90 18.52 693.99 39.01 C 703.77 43.51 708.55 53.68 714.89 61.75 C 707.78 68.88 701.40 77.26 691.51 80.68 C 694.10 94.24 676.90 92.82 671.45 101.39 C 669.15 109.37 661.69 111.95 655.01 115.08 C 635.24 142.62 604.42 162.00 588.42 192.39 C 583.68 206.87 569.94 216.29 566.94 231.87 C 562.34 242.69 559.22 254.75 548.88 261.86 C 543.15 279.09 531.45 293.58 526.10 311.05 C 524.66 317.80 514.63 313.84 514.26 321.29 C 513.65 254.49 514.18 187.66 513.99 120.85 C 519.68 122.17 519.51 133.39 523.95 138.08 C 539.73 145.57 556.16 153.95 573.36 159.72 C 579.84 164.30 587.18 178.91 596.28 170.24 C 601.86 162.83 585.66 160.28 589.13 151.96 C 590.16 141.83 586.16 132.19 576.01 129.02 C 566.39 122.52 567.74 109.23 559.76 101.82 C 556.32 96.86 550.74 91.46 548.56 84.37 C 540.08 79.71 542.47 70.31 534.41 65.58 C 529.22 52.53 524.56 38.33 528.18 24.13 C 547.31 7.87 573.19 11.07 596.42 7.46 Z" />
<path fill="#81c23e" d=" M 314.28 31.29 C 344.47 11.83 382.34 12.18 417.00 10.95 C 438.36 9.26 458.19 18.98 474.94 31.29 C 474.87 32.62 474.74 35.29 474.67 36.62 C 462.92 54.76 452.69 73.94 440.96 91.98 C 436.02 107.44 420.18 115.91 414.30 131.31 C 408.68 139.88 411.11 152.76 402.01 158.99 C 391.04 164.82 387.60 177.40 382.80 187.88 C 357.22 225.87 331.90 264.25 306.25 302.20 C 286.83 327.89 272.06 356.77 251.15 381.22 C 250.63 381.16 249.57 381.03 249.04 380.96 C 249.37 380.49 250.03 379.55 250.35 379.08 C 294.79 317.14 336.21 253.13 378.85 189.88 C 385.01 181.16 385.50 165.60 374.01 161.01 C 368.10 158.87 363.01 155.62 360.12 149.86 C 333.55 125.01 308.71 97.12 281.29 73.86 C 280.33 72.08 279.35 70.30 278.24 68.60 C 288.16 54.44 300.74 42.09 314.28 31.29 Z" />
<path fill="#183987" d=" M 514.26 31.44 C 519.12 29.43 523.13 25.74 528.18 24.13 C 524.56 38.33 529.22 52.53 534.41 65.58 C 542.47 70.31 540.08 79.71 548.56 84.37 C 550.74 91.46 556.32 96.86 559.76 101.82 C 567.74 109.23 566.39 122.52 576.01 129.02 C 586.16 132.19 590.16 141.83 589.13 151.96 C 585.66 160.28 601.86 162.83 596.28 170.24 C 587.18 178.91 579.84 164.30 573.36 159.72 C 556.16 153.95 539.73 145.57 523.95 138.08 C 519.51 133.39 519.68 122.17 513.99 120.85 C 514.22 91.06 513.58 61.19 514.26 31.44 Z" />
<path fill="#a1cf34" d=" M 440.96 91.98 C 452.69 73.94 462.92 54.76 474.67 36.62 C 475.46 66.98 474.73 97.36 475.05 127.73 C 465.76 125.81 460.43 134.60 453.05 137.99 C 438.28 141.70 426.61 151.76 415.11 161.07 C 402.12 167.23 391.99 177.04 382.80 187.88 C 387.60 177.40 391.04 164.82 402.01 158.99 C 411.11 152.76 408.68 139.88 414.30 131.31 C 420.18 115.91 436.02 107.44 440.96 91.98 Z" />
<path fill="#0a4f9e" d=" M 691.51 80.68 C 701.40 77.26 707.78 68.88 714.89 61.75 C 716.08 62.43 716.54 63.85 717.17 65.00 C 712.60 82.19 696.35 91.85 684.44 103.47 C 678.94 119.01 660.47 121.10 652.56 134.64 C 630.24 154.92 608.77 176.36 591.76 200.84 C 585.16 217.59 573.08 231.78 568.28 249.30 C 554.98 265.95 546.24 285.42 535.95 303.98 C 530.45 313.76 528.57 326.56 518.63 333.19 C 517.32 332.02 515.81 331.16 514.15 330.63 C 513.88 327.51 513.63 324.36 514.26 321.29 C 514.63 313.84 524.66 317.80 526.10 311.05 C 531.45 293.58 543.15 279.09 548.88 261.86 C 559.22 254.75 562.34 242.69 566.94 231.87 C 569.94 216.29 583.68 206.87 588.42 192.39 C 604.42 162.00 635.24 142.62 655.01 115.08 C 661.69 111.95 669.15 109.37 671.45 101.39 C 676.90 92.82 694.10 94.24 691.51 80.68 Z" />
<path fill="#035daf" d=" M 717.17 65.00 C 718.51 66.11 719.87 67.31 720.76 68.84 C 716.74 122.59 727.06 176.19 727.95 229.98 C 728.52 282.69 735.82 335.09 734.89 387.84 C 730.80 395.06 724.05 400.99 722.83 409.84 C 703.00 438.56 687.88 470.49 668.56 499.49 C 667.60 510.41 654.98 514.44 654.16 525.17 C 653.19 528.14 657.36 528.04 659.24 528.48 C 654.39 529.38 647.73 532.10 644.02 528.01 C 643.51 517.67 634.62 512.71 630.72 504.23 C 619.44 496.82 617.54 481.19 609.54 471.54 C 602.18 470.74 603.89 461.51 598.04 458.92 C 591.83 455.46 594.02 445.62 587.68 442.32 C 571.95 431.14 569.93 409.13 553.54 398.59 C 550.88 389.52 541.73 384.74 540.07 374.98 C 531.37 372.25 534.25 360.33 525.16 358.77 C 525.18 350.18 513.17 341.31 518.63 333.19 C 528.57 326.56 530.45 313.76 535.95 303.98 C 546.24 285.42 554.98 265.95 568.28 249.30 C 573.08 231.78 585.16 217.59 591.76 200.84 C 608.77 176.36 630.24 154.92 652.56 134.64 C 660.47 121.10 678.94 119.01 684.44 103.47 C 696.35 91.85 712.60 82.19 717.17 65.00 Z" />
<path fill="#55b73e" d=" M 274.55 72.96 C 273.80 71.23 277.09 69.84 278.24 68.60 C 279.35 70.30 280.33 72.08 281.29 73.86 C 308.71 97.12 333.55 125.01 360.12 149.86 C 363.01 155.62 368.10 158.87 374.01 161.01 C 385.50 165.60 385.01 181.16 378.85 189.88 C 336.21 253.13 294.79 317.14 250.35 379.08 C 250.03 378.49 249.38 377.31 249.05 376.71 L 249.40 376.05 C 268.14 354.45 279.94 328.26 297.90 305.87 C 321.08 272.64 341.55 236.60 366.91 204.89 C 366.86 194.37 380.37 190.54 379.00 180.08 C 379.59 169.63 368.37 167.56 362.42 161.71 C 335.68 129.80 302.39 103.74 274.55 72.96 Z" />
<path fill="#0273bd" d=" M 727.95 229.98 C 727.06 176.19 716.74 122.59 720.76 68.84 C 723.23 68.74 725.72 69.14 728.00 70.13 C 728.13 127.86 732.94 186.12 735.76 244.07 C 742.00 275.04 738.04 307.31 741.33 338.77 C 744.95 353.53 736.06 372.91 748.14 384.88 C 768.77 390.59 789.83 395.49 809.98 402.98 C 832.06 404.52 851.78 415.88 873.82 418.23 C 889.03 426.14 907.42 424.58 921.64 434.38 C 929.47 436.08 937.19 432.63 944.97 431.83 C 944.97 432.31 944.96 433.28 944.95 433.76 C 933.38 438.58 920.96 439.96 908.97 442.97 C 902.11 453.21 887.48 447.67 878.14 454.15 C 868.19 464.06 852.00 458.29 841.27 467.28 C 822.41 471.02 805.17 478.20 787.10 484.14 C 775.99 495.13 757.24 486.53 746.98 498.94 C 729.32 500.41 715.10 511.79 697.38 513.46 C 686.25 523.00 669.98 518.12 659.24 528.48 C 657.36 528.04 653.19 528.14 654.16 525.17 C 654.98 514.44 667.60 510.41 668.56 499.49 C 687.88 470.49 703.00 438.56 722.83 409.84 C 724.05 400.99 730.80 395.06 734.89 387.84 C 735.82 335.09 728.52 282.69 727.95 229.98 Z" />
<path fill="#018bcb" d=" M 728.00 70.13 C 743.96 72.07 760.82 74.08 773.00 86.00 C 803.38 104.39 826.73 131.52 843.45 162.58 C 856.02 190.77 859.87 222.40 862.56 252.70 C 855.76 262.57 847.69 272.71 836.18 277.17 C 829.42 283.33 827.90 294.85 818.07 297.19 C 803.62 309.89 793.48 327.40 777.23 338.17 C 770.21 346.95 766.29 360.27 754.00 362.98 C 746.20 364.90 749.03 376.57 753.94 380.09 C 764.05 381.46 774.91 381.47 783.96 387.02 C 805.14 395.30 827.87 397.84 849.73 403.21 C 871.04 414.84 896.34 413.74 918.36 423.62 C 926.97 427.00 935.29 431.94 944.98 428.99 C 944.98 429.70 944.98 431.12 944.97 431.83 C 937.19 432.63 929.47 436.08 921.64 434.38 C 907.42 424.58 889.03 426.14 873.82 418.23 C 851.78 415.88 832.06 404.52 809.98 402.98 C 789.83 395.49 768.77 390.59 748.14 384.88 C 736.06 372.91 744.95 353.53 741.33 338.77 C 738.04 307.31 742.00 275.04 735.76 244.07 C 732.94 186.12 728.13 127.86 728.00 70.13 Z" />
<path fill="#28ad47" d=" M 274.55 72.96 C 302.39 103.74 335.68 129.80 362.42 161.71 C 368.37 167.56 379.59 169.63 379.00 180.08 C 380.37 190.54 366.86 194.37 366.91 204.89 C 341.55 236.60 321.08 272.64 297.90 305.87 C 279.94 328.26 268.14 354.45 249.40 376.05 C 248.94 374.63 248.46 373.23 247.99 371.83 C 248.68 370.57 249.37 369.31 250.08 368.07 C 257.29 366.90 255.57 357.59 260.80 353.83 C 265.27 350.24 266.16 344.41 268.86 339.80 C 275.39 337.10 277.58 331.22 278.68 324.67 C 285.67 319.13 286.59 309.00 295.12 305.21 C 300.86 294.42 304.86 280.38 315.79 274.84 C 316.72 264.76 327.38 259.97 328.92 249.88 C 338.64 234.73 351.28 221.61 359.88 205.99 C 367.91 200.65 365.39 188.05 375.66 184.71 C 375.36 173.97 361.16 172.14 357.06 163.03 C 328.18 133.94 299.07 104.53 268.92 76.84 L 269.10 76.10 C 270.99 75.17 272.92 74.32 274.55 72.96 Z" />
<path fill="#018d42" d=" M 182.62 117.56 C 204.19 92.36 235.40 75.19 269.10 76.10 L 268.92 76.84 C 259.34 128.04 262.51 181.73 257.79 233.90 C 254.05 278.45 251.75 323.40 250.08 368.07 C 249.37 369.31 248.68 370.57 247.99 371.83 C 246.60 373.33 245.66 376.09 243.24 375.95 C 241.26 365.23 226.77 370.90 222.72 363.21 C 221.07 354.42 210.76 352.53 208.80 344.03 C 199.27 329.34 182.11 321.37 174.08 304.95 C 160.67 292.79 145.23 282.22 134.99 266.95 C 132.78 263.08 128.75 260.77 124.51 259.84 C 127.41 230.98 130.07 201.31 141.12 174.13 C 148.55 151.12 165.63 133.87 182.62 117.56 Z" />
<path fill="#03a74e" d=" M 268.92 76.84 C 299.07 104.53 328.18 133.94 357.06 163.03 C 361.16 172.14 375.36 173.97 375.66 184.71 C 365.39 188.05 367.91 200.65 359.88 205.99 C 351.28 221.61 338.64 234.73 328.92 249.88 C 327.38 259.97 316.72 264.76 315.79 274.84 C 304.86 280.38 300.86 294.42 295.12 305.21 C 286.59 309.00 285.67 319.13 278.68 324.67 C 277.58 331.22 275.39 337.10 268.86 339.80 C 266.16 344.41 265.27 350.24 260.80 353.83 C 255.57 357.59 257.29 366.90 250.08 368.07 C 251.75 323.40 254.05 278.45 257.79 233.90 C 262.51 181.73 259.34 128.04 268.92 76.84 Z" />
<path fill="#b5ca22" d=" M 453.05 137.99 C 460.43 134.60 465.76 125.81 475.05 127.73 C 475.25 130.39 475.19 133.04 474.86 135.67 C 456.85 144.61 438.80 153.61 421.16 163.20 C 408.75 171.23 392.86 175.94 386.94 190.81 C 353.23 234.06 326.03 282.45 293.16 326.11 C 288.68 340.56 273.96 348.53 269.87 362.92 C 264.92 372.21 256.45 379.43 251.71 388.21 L 251.22 387.76 C 250.51 387.08 249.78 386.42 249.06 385.77 C 249.77 384.25 250.46 382.73 251.15 381.22 C 272.06 356.77 286.83 327.89 306.25 302.20 C 331.90 264.25 357.22 225.87 382.80 187.88 C 391.99 177.04 402.12 167.23 415.11 161.07 C 426.61 151.76 438.28 141.70 453.05 137.99 Z" />
<path fill="#d4de21" d=" M 421.16 163.20 C 438.80 153.61 456.85 144.61 474.86 135.67 C 475.05 203.56 475.18 271.47 474.80 339.35 C 469.07 333.85 470.94 324.66 466.82 318.11 C 460.91 308.82 455.66 299.11 450.50 289.45 C 438.46 281.30 441.05 265.40 431.21 255.93 C 419.38 239.44 407.66 222.42 400.66 203.28 C 397.66 197.82 393.68 191.71 386.94 190.81 C 392.86 175.94 408.75 171.23 421.16 163.20 Z" />
<path fill="#0065b2" d=" M 614.36 187.19 C 617.83 186.63 619.22 191.44 621.80 188.14 C 625.19 198.90 629.47 210.15 629.17 221.86 C 630.63 234.21 646.37 231.41 651.91 241.13 C 653.97 250.24 663.69 251.94 668.01 258.99 C 669.94 275.84 677.15 291.60 684.33 306.69 C 692.27 307.52 708.95 315.14 706.60 328.37 C 718.76 336.39 714.77 352.54 720.47 364.60 C 724.08 370.19 721.49 381.24 712.94 379.08 C 702.25 376.74 691.84 370.24 680.69 371.68 C 671.60 375.76 663.78 368.13 654.70 368.27 C 635.04 366.62 615.31 362.66 595.35 362.76 C 591.52 354.37 573.43 360.95 576.44 348.54 C 579.48 344.54 579.48 330.23 572.51 334.53 C 567.38 340.64 574.83 349.31 568.72 354.96 C 560.36 357.32 556.23 350.37 553.78 344.06 C 547.37 345.84 540.33 345.03 535.01 349.98 C 528.01 352.82 515.52 339.26 525.58 335.46 C 535.80 315.98 544.03 295.23 555.71 276.74 C 565.70 270.33 564.06 256.04 573.81 248.82 C 579.33 234.28 589.64 222.53 593.43 207.40 C 598.87 198.89 612.26 198.57 614.36 187.19 Z" />
<path fill="#e5d011" d=" M 293.16 326.11 C 326.03 282.45 353.23 234.06 386.94 190.81 C 393.68 191.71 397.66 197.82 400.66 203.28 C 407.66 222.42 419.38 239.44 431.21 255.93 C 441.05 265.40 438.46 281.30 450.50 289.45 C 455.66 299.11 460.91 308.82 466.82 318.11 C 470.94 324.66 469.07 333.85 474.80 339.35 C 475.32 342.54 475.13 345.92 474.82 349.15 L 474.06 348.63 C 468.07 342.09 464.57 333.94 460.96 326.00 C 455.04 319.30 450.45 311.68 447.91 303.11 C 440.14 288.93 426.26 277.59 424.40 260.61 C 422.39 246.24 408.03 239.05 406.17 224.79 C 397.80 218.51 396.40 205.73 386.90 201.02 C 372.61 202.28 378.16 222.81 365.09 224.11 C 363.68 231.62 360.15 238.28 354.43 243.40 C 353.88 249.33 350.78 252.68 345.67 254.68 C 337.42 275.25 318.50 288.98 311.63 310.60 C 300.93 316.50 296.25 329.25 291.13 340.18 C 283.37 342.26 285.02 353.04 276.88 353.93 C 270.68 357.12 276.76 369.10 269.52 372.44 C 264.74 373.88 263.34 378.74 261.77 382.91 C 258.73 385.01 255.71 387.15 252.72 389.32 C 252.47 389.04 251.96 388.49 251.71 388.21 C 256.45 379.43 264.92 372.21 269.87 362.92 C 273.96 348.53 288.68 340.56 293.16 326.11 Z" />
<path fill="#fbcc09" d=" M 365.09 224.11 C 378.16 222.81 372.61 202.28 386.90 201.02 C 396.40 205.73 397.80 218.51 406.17 224.79 C 408.03 239.05 422.39 246.24 424.40 260.61 C 426.26 277.59 440.14 288.93 447.91 303.11 C 450.45 311.68 455.04 319.30 460.96 326.00 C 464.57 333.94 468.07 342.09 474.06 348.63 C 462.95 362.76 443.20 359.35 427.96 365.01 C 406.25 362.77 384.86 367.67 363.35 369.38 C 350.42 379.68 332.66 371.89 318.00 376.95 C 301.88 382.25 284.64 380.72 268.18 384.38 C 265.90 384.77 263.60 384.38 261.77 382.91 C 263.34 378.74 264.74 373.88 269.52 372.44 C 276.76 369.10 270.68 357.12 276.88 353.93 C 285.02 353.04 283.37 342.26 291.13 340.18 C 296.25 329.25 300.93 316.50 311.63 310.60 C 318.50 288.98 337.42 275.25 345.67 254.68 C 350.78 252.68 353.88 249.33 354.43 243.40 C 360.15 238.28 363.68 231.62 365.09 224.11 Z" />
<path fill="#029cdc" d=" M 836.18 277.17 C 847.69 272.71 855.76 262.57 862.56 252.70 C 864.12 261.07 874.20 262.18 879.89 267.11 C 920.98 290.93 929.52 342.48 938.55 385.43 C 940.48 399.98 945.09 414.25 944.98 428.99 C 935.29 431.94 926.97 427.00 918.36 423.62 C 896.34 413.74 871.04 414.84 849.73 403.21 C 827.87 397.84 805.14 395.30 783.96 387.02 C 774.91 381.47 764.05 381.46 753.94 380.09 C 749.03 376.57 746.20 364.90 754.00 362.98 C 766.29 360.27 770.21 346.95 777.23 338.17 C 793.48 327.40 803.62 309.89 818.07 297.19 C 827.90 294.85 829.42 283.33 836.18 277.17 Z" />
<path fill="#02783a" d=" M 124.51 259.84 C 128.75 260.77 132.78 263.08 134.99 266.95 C 145.23 282.22 160.67 292.79 174.08 304.95 C 182.11 321.37 199.27 329.34 208.80 344.03 C 210.76 352.53 221.07 354.42 222.72 363.21 C 226.77 370.90 241.26 365.23 243.24 375.95 C 236.71 374.39 231.66 375.43 230.80 382.80 C 221.93 391.07 203.99 380.56 197.05 393.09 C 186.93 399.64 172.58 393.42 162.05 400.10 C 151.05 408.37 135.95 404.09 124.05 410.15 C 113.92 420.09 98.22 412.72 87.29 421.24 C 77.85 428.64 64.91 424.45 54.26 428.23 C 50.46 430.38 48.39 434.74 44.04 436.19 C 43.98 404.86 43.23 372.48 57.97 343.98 C 65.72 326.95 76.50 311.62 84.96 294.98 C 92.95 278.29 112.10 271.98 124.51 259.84 Z" />
<path fill="#1c5fac" d=" M 514.15 330.63 C 515.81 331.16 517.32 332.02 518.63 333.19 C 513.17 341.31 525.18 350.18 525.16 358.77 C 534.25 360.33 531.37 372.25 540.07 374.98 C 541.73 384.74 550.88 389.52 553.54 398.59 C 569.93 409.13 571.95 431.14 587.68 442.32 C 594.02 445.62 591.83 455.46 598.04 458.92 C 603.89 461.51 602.18 470.74 609.54 471.54 C 617.54 481.19 619.44 496.82 630.72 504.23 C 634.62 512.71 643.51 517.67 644.02 528.01 C 647.73 532.10 654.39 529.38 659.24 528.48 C 669.98 518.12 686.25 523.00 697.38 513.46 C 715.10 511.79 729.32 500.41 746.98 498.94 C 757.24 486.53 775.99 495.13 787.10 484.14 C 805.17 478.20 822.41 471.02 841.27 467.28 C 852.00 458.29 868.19 464.06 878.14 454.15 C 887.48 447.67 902.11 453.21 908.97 442.97 C 920.96 439.96 933.38 438.58 944.95 433.76 C 944.96 434.53 944.96 436.06 944.96 436.82 C 935.16 441.54 923.90 441.61 914.12 446.13 C 903.76 454.48 888.52 450.28 878.24 459.14 C 819.29 476.23 761.58 497.88 703.02 516.04 C 691.79 524.52 675.51 519.95 665.28 530.21 C 657.49 531.42 642.96 536.60 640.56 525.39 C 605.54 474.03 568.62 424.11 533.20 372.86 C 531.51 364.29 521.68 362.26 519.81 354.04 C 519.08 351.14 517.14 348.94 514.10 348.68 C 513.89 342.67 513.73 336.63 514.15 330.63 Z" />
<path fill="#f8be11" d=" M 427.96 365.01 C 443.20 359.35 462.95 362.76 474.06 348.63 L 474.82 349.15 C 475.26 354.67 475.14 360.25 474.92 365.79 C 459.48 372.18 458.43 390.65 446.98 400.99 C 441.33 405.60 442.86 414.05 437.76 418.75 C 421.92 425.94 417.67 444.60 407.46 457.54 C 394.43 469.97 384.90 485.57 377.99 502.11 C 373.28 512.46 356.51 515.15 357.70 528.42 C 362.52 540.02 346.90 538.95 341.22 533.81 C 331.31 517.01 321.94 499.89 313.64 482.29 C 299.62 472.41 300.03 452.85 287.04 441.96 C 278.63 436.33 283.27 422.63 273.07 418.88 C 263.92 410.42 264.37 395.62 252.72 389.32 C 255.71 387.15 258.73 385.01 261.77 382.91 C 263.60 384.38 265.90 384.77 268.18 384.38 C 284.64 380.72 301.88 382.25 318.00 376.95 C 332.66 371.89 350.42 379.68 363.35 369.38 C 384.86 367.67 406.25 362.77 427.96 365.01 Z" />
<path fill="#3a50a2" d=" M 514.10 348.68 C 517.14 348.94 519.08 351.14 519.81 354.04 C 521.68 362.26 531.51 364.29 533.20 372.86 C 568.62 424.11 605.54 474.03 640.56 525.39 C 642.96 536.60 657.49 531.42 665.28 530.21 C 675.51 519.95 691.79 524.52 703.02 516.04 C 761.58 497.88 819.29 476.23 878.24 459.14 C 888.52 450.28 903.76 454.48 914.12 446.13 C 923.90 441.61 935.16 441.54 944.96 436.82 C 944.97 437.60 945.00 439.16 945.01 439.94 C 853.48 467.88 763.35 499.93 672.03 529.00 C 661.66 534.46 642.93 539.89 637.94 525.10 C 596.42 467.88 556.76 408.67 514.19 352.61 C 513.92 351.31 513.89 350.00 514.10 348.68 Z" />
<path fill="#5b3f97" d=" M 514.19 352.61 C 556.76 408.67 596.42 467.88 637.94 525.10 C 642.93 539.89 661.66 534.46 672.03 529.00 C 763.35 499.93 853.48 467.88 945.01 439.94 C 944.99 440.67 944.97 442.13 944.95 442.86 C 905.60 453.38 866.92 466.97 828.65 480.59 C 784.54 494.25 740.66 508.85 697.01 524.00 C 679.43 526.47 663.38 539.79 645.18 535.78 C 633.57 526.34 626.55 512.23 617.75 500.17 C 582.91 452.17 549.98 402.90 514.19 355.67 C 514.19 354.90 514.19 353.38 514.19 352.61 Z" />
<path fill="#7e2e91" d=" M 514.19 355.67 C 549.98 402.90 582.91 452.17 617.75 500.17 C 626.55 512.23 633.57 526.34 645.18 535.78 C 663.38 539.79 679.43 526.47 697.01 524.00 C 740.66 508.85 784.54 494.25 828.65 480.59 C 866.92 466.97 905.60 453.38 944.95 442.86 C 944.96 443.35 944.97 444.34 944.97 444.83 C 849.32 472.91 756.54 508.04 661.20 537.30 C 656.93 539.17 652.60 541.88 647.82 540.15 C 636.71 534.81 631.40 522.99 624.52 513.42 C 586.34 463.61 553.21 409.74 514.15 360.71 C 513.78 359.05 514.04 357.33 514.19 355.67 Z" />
<path fill="#bc1898" d=" M 514.15 360.71 C 553.21 409.74 586.34 463.61 624.52 513.42 C 631.40 522.99 636.71 534.81 647.82 540.15 C 650.11 542.26 652.71 544.18 655.95 544.37 C 655.97 544.77 656.01 545.58 656.03 545.98 C 650.79 546.54 645.31 546.16 640.80 543.24 C 639.41 540.97 638.07 538.65 636.22 536.73 C 630.88 531.20 626.67 524.75 624.72 517.30 C 616.03 514.30 614.43 504.04 607.89 498.13 C 602.16 485.00 589.61 476.66 583.56 463.44 C 576.87 458.57 577.90 448.40 570.20 444.80 C 551.09 419.86 536.03 392.29 514.13 368.86 C 513.88 366.14 513.89 363.43 514.15 360.71 Z" />
<path fill="#f7a71a" d=" M 446.98 400.99 C 458.43 390.65 459.48 372.18 474.92 365.79 C 475.07 460.24 475.03 554.70 474.94 649.16 C 452.10 629.98 429.76 611.62 408.00 592.00 C 385.59 572.83 367.17 548.81 339.02 537.88 C 328.55 534.01 331.19 519.73 320.93 515.20 C 320.61 499.22 303.41 491.84 298.66 477.38 C 294.64 461.98 280.96 451.88 275.80 437.12 C 272.37 427.24 261.74 421.82 260.07 410.98 C 259.21 403.30 251.19 399.46 249.94 392.20 C 250.40 390.73 250.84 389.25 251.22 387.76 L 251.71 388.21 C 251.96 388.49 252.47 389.04 252.72 389.32 C 264.37 395.62 263.92 410.42 273.07 418.88 C 283.27 422.63 278.63 436.33 287.04 441.96 C 300.03 452.85 299.62 472.41 313.64 482.29 C 321.94 499.89 331.31 517.01 341.22 533.81 C 346.90 538.95 362.52 540.02 357.70 528.42 C 356.51 515.15 373.28 512.46 377.99 502.11 C 384.90 485.57 394.43 469.97 407.46 457.54 C 417.67 444.60 421.92 425.94 437.76 418.75 C 442.86 414.05 441.33 405.60 446.98 400.99 Z" />
<path fill="#f00391" d=" M 514.13 368.86 C 536.03 392.29 551.09 419.86 570.20 444.80 C 577.90 448.40 576.87 458.57 583.56 463.44 C 589.61 476.66 602.16 485.00 607.89 498.13 C 614.43 504.04 616.03 514.30 624.72 517.30 C 626.67 524.75 630.88 531.20 636.22 536.73 C 636.48 542.17 641.16 550.31 634.63 553.60 C 628.06 556.64 621.44 559.70 614.76 562.44 C 602.17 560.48 606.13 577.46 595.96 580.97 C 596.20 599.74 571.61 590.76 567.20 607.12 C 564.59 615.78 553.84 615.28 549.94 622.96 C 545.56 631.83 535.83 633.85 527.32 636.49 C 522.73 642.56 524.52 653.06 514.22 654.31 C 513.80 559.17 513.97 464.01 514.13 368.86 Z" />
<path fill="#297c38" d=" M 243.24 375.95 C 245.66 376.09 246.60 373.33 247.99 371.83 C 248.46 373.23 248.94 374.63 249.40 376.05 L 249.05 376.71 C 236.78 391.83 215.52 385.15 200.89 395.92 C 179.19 397.25 160.22 408.48 138.62 410.56 C 123.46 419.40 104.64 416.30 89.88 425.87 C 73.91 427.74 58.68 432.11 44.03 438.19 C 44.03 437.69 44.03 436.69 44.04 436.19 C 48.39 434.74 50.46 430.38 54.26 428.23 C 64.91 424.45 77.85 428.64 87.29 421.24 C 98.22 412.72 113.92 420.09 124.05 410.15 C 135.95 404.09 151.05 408.37 162.05 400.10 C 172.58 393.42 186.93 399.64 197.05 393.09 C 203.99 380.56 221.93 391.07 230.80 382.80 C 231.66 375.43 236.71 374.39 243.24 375.95 Z" />
<path fill="#5c8231" d=" M 200.89 395.92 C 215.52 385.15 236.78 391.83 249.05 376.71 C 249.38 377.31 250.03 378.49 250.35 379.08 C 250.03 379.55 249.37 380.49 249.04 380.96 C 239.77 393.50 221.95 387.77 209.87 395.81 C 197.47 400.80 183.28 399.35 171.62 406.55 C 137.35 413.12 104.68 425.74 70.38 432.42 C 62.01 436.19 53.33 439.60 44.05 440.13 C 44.04 439.65 44.03 438.68 44.03 438.19 C 58.68 432.11 73.91 427.74 89.88 425.87 C 104.64 416.30 123.46 419.40 138.62 410.56 C 160.22 408.48 179.19 397.25 200.89 395.92 Z" />
<path fill="#938629" d=" M 209.87 395.81 C 221.95 387.77 239.77 393.50 249.04 380.96 C 249.57 381.03 250.63 381.16 251.15 381.22 C 250.46 382.73 249.77 384.25 249.06 385.77 C 244.76 390.96 237.83 391.98 231.48 392.39 C 222.67 391.56 216.43 399.00 208.00 399.93 C 198.95 402.50 188.63 401.04 180.56 406.53 C 171.25 411.95 159.77 410.22 149.86 413.92 C 134.72 422.51 116.40 421.01 100.86 428.82 C 81.15 431.11 63.48 440.12 43.97 442.99 C 43.99 442.27 44.03 440.85 44.05 440.13 C 53.33 439.60 62.01 436.19 70.38 432.42 C 104.68 425.74 137.35 413.12 171.62 406.55 C 183.28 399.35 197.47 400.80 209.87 395.81 Z" />
<path fill="#c78a22" d=" M 231.48 392.39 C 237.83 391.98 244.76 390.96 249.06 385.77 C 249.78 386.42 250.51 387.08 251.22 387.76 C 250.84 389.25 250.40 390.73 249.94 392.20 C 239.19 395.28 227.48 395.58 217.83 401.75 C 208.89 404.30 198.22 400.93 190.39 407.33 C 178.73 416.19 161.32 408.78 150.80 419.72 C 142.94 424.44 132.91 422.75 124.20 424.34 C 109.92 435.81 89.74 429.33 75.00 439.92 C 68.58 442.87 61.24 442.08 54.54 444.01 C 51.00 444.20 47.48 444.59 43.97 445.07 C 43.97 444.55 43.97 443.51 43.97 442.99 C 63.48 440.12 81.15 431.11 100.86 428.82 C 116.40 421.01 134.72 422.51 149.86 413.92 C 159.77 410.22 171.25 411.95 180.56 406.53 C 188.63 401.04 198.95 402.50 208.00 399.93 C 216.43 399.00 222.67 391.56 231.48 392.39 Z" />
<path fill="#f38d1e" d=" M 217.83 401.75 C 227.48 395.58 239.19 395.28 249.94 392.20 C 251.19 399.46 259.21 403.30 260.07 410.98 C 261.74 421.82 272.37 427.24 275.80 437.12 C 280.96 451.88 294.64 461.98 298.66 477.38 C 303.41 491.84 320.61 499.22 320.93 515.20 C 331.19 519.73 328.55 534.01 339.02 537.88 C 367.17 548.81 385.59 572.83 408.00 592.00 C 429.76 611.62 452.10 629.98 474.94 649.16 C 475.17 651.21 475.00 653.28 474.83 655.34 C 441.27 622.83 403.25 594.94 370.31 561.64 C 358.75 551.16 345.85 542.51 330.69 538.21 C 325.06 530.22 316.29 530.17 307.17 530.77 C 289.23 525.68 273.57 514.96 254.88 512.16 C 227.63 498.67 197.53 495.96 170.30 482.75 C 148.20 474.41 124.11 472.09 103.04 460.97 C 94.65 456.07 84.00 459.25 75.58 454.39 C 69.36 449.30 61.71 447.20 54.54 444.01 C 61.24 442.08 68.58 442.87 75.00 439.92 C 89.74 429.33 109.92 435.81 124.20 424.34 C 132.91 422.75 142.94 424.44 150.80 419.72 C 161.32 408.78 178.73 416.19 190.39 407.33 C 198.22 400.93 208.89 404.30 217.83 401.75 Z" />
<path fill="#f2791d" d=" M 43.97 445.07 C 47.48 444.59 51.00 444.20 54.54 444.01 C 61.71 447.20 69.36 449.30 75.58 454.39 C 84.00 459.25 94.65 456.07 103.04 460.97 C 124.11 472.09 148.20 474.41 170.30 482.75 C 197.53 495.96 227.63 498.67 254.88 512.16 C 273.57 514.96 289.23 525.68 307.17 530.77 C 316.29 530.17 325.06 530.22 330.69 538.21 C 345.85 542.51 358.75 551.16 370.31 561.64 C 403.25 594.94 441.27 622.83 474.83 655.34 C 474.82 655.87 474.81 656.91 474.81 657.43 C 436.30 622.95 396.57 589.46 358.19 554.79 C 345.76 542.32 327.12 543.02 311.10 540.16 C 305.16 543.06 301.59 537.65 297.88 534.10 C 281.06 528.00 263.93 522.54 246.35 518.66 C 213.25 503.33 176.58 499.25 143.66 483.42 C 126.76 480.33 110.36 474.77 95.31 466.65 C 77.63 461.26 59.19 459.01 44.16 446.79 C 44.11 446.36 44.02 445.50 43.97 445.07 Z" />
<path fill="#931e79" d=" M 661.20 537.30 C 756.54 508.04 849.32 472.91 944.97 444.83 C 944.96 445.59 944.95 447.13 944.94 447.89 C 935.21 445.15 931.02 456.41 921.87 455.56 C 906.10 455.24 894.30 468.18 878.18 467.20 C 847.90 481.58 815.23 490.93 783.17 500.19 C 773.71 510.39 757.50 503.43 748.56 513.56 C 740.57 517.47 730.71 515.46 723.09 520.17 C 713.81 529.18 697.89 523.06 689.40 533.41 C 678.90 538.94 664.33 533.54 655.95 544.37 C 652.71 544.18 650.11 542.26 647.82 540.15 C 652.60 541.88 656.93 539.17 661.20 537.30 Z" />
<path fill="#ef661d" d=" M 44.16 446.79 C 59.19 459.01 77.63 461.26 95.31 466.65 C 110.36 474.77 126.76 480.33 143.66 483.42 C 176.58 499.25 213.25 503.33 246.35 518.66 C 263.93 522.54 281.06 528.00 297.88 534.10 C 301.59 537.65 305.16 543.06 311.10 540.16 C 327.12 543.02 345.76 542.32 358.19 554.79 C 396.57 589.46 436.30 622.95 474.81 657.43 C 474.84 658.15 474.90 659.58 474.93 660.30 C 440.89 631.68 407.29 601.11 373.24 571.82 C 360.63 563.05 350.96 544.78 333.06 549.26 C 317.60 558.72 299.00 559.67 284.06 570.13 C 256.25 577.99 230.68 591.85 203.04 600.14 C 195.49 607.66 184.44 607.43 175.13 611.24 C 155.51 623.60 131.32 626.81 111.61 637.90 C 51.99 594.93 41.30 514.90 44.16 446.79 Z" />
<path fill="#ac0e6b" d=" M 921.87 455.56 C 931.02 456.41 935.21 445.15 944.94 447.89 C 949.18 515.42 924.28 586.53 873.08 632.02 C 860.01 623.09 843.76 620.30 829.92 612.20 C 806.94 606.47 785.88 594.97 764.12 585.90 C 759.86 584.50 753.82 586.41 750.91 582.03 C 745.76 572.87 733.38 577.17 726.04 570.97 C 714.95 561.95 698.46 566.50 688.32 555.73 C 677.33 552.77 666.27 549.76 656.03 545.98 C 656.01 545.58 655.97 544.77 655.95 544.37 C 664.33 533.54 678.90 538.94 689.40 533.41 C 697.89 523.06 713.81 529.18 723.09 520.17 C 730.71 515.46 740.57 517.47 748.56 513.56 C 757.50 503.43 773.71 510.39 783.17 500.19 C 815.23 490.93 847.90 481.58 878.18 467.20 C 894.30 468.18 906.10 455.24 921.87 455.56 Z" />
<path fill="#e10185" d=" M 636.22 536.73 C 638.07 538.65 639.41 540.97 640.80 543.24 C 650.93 547.86 646.61 560.45 655.07 565.97 C 663.51 583.31 666.76 602.82 672.97 621.05 C 688.43 638.16 686.61 663.25 695.41 683.61 C 703.80 701.04 712.26 718.48 714.99 737.82 C 709.29 740.34 702.71 738.95 697.91 735.25 C 689.12 729.87 676.43 732.19 670.66 722.40 C 652.26 719.83 638.80 705.24 620.62 701.49 C 605.72 690.60 585.87 690.74 570.40 680.60 C 562.49 671.13 548.84 673.56 538.81 668.06 C 532.03 661.68 523.36 657.65 513.95 658.76 C 513.89 657.27 513.90 655.76 514.22 654.31 C 524.52 653.06 522.73 642.56 527.32 636.49 C 535.83 633.85 545.56 631.83 549.94 622.96 C 553.84 615.28 564.59 615.78 567.20 607.12 C 571.61 590.76 596.20 599.74 595.96 580.97 C 606.13 577.46 602.17 560.48 614.76 562.44 C 621.44 559.70 628.06 556.64 634.63 553.60 C 641.16 550.31 636.48 542.17 636.22 536.73 Z" />
<path fill="#ca127e" d=" M 640.80 543.24 C 645.31 546.16 650.79 546.54 656.03 545.98 C 666.27 549.76 677.33 552.77 688.32 555.73 C 698.46 566.50 714.95 561.95 726.04 570.97 C 733.38 577.17 745.76 572.87 750.91 582.03 C 753.82 586.41 759.86 584.50 764.12 585.90 C 785.88 594.97 806.94 606.47 829.92 612.20 C 843.76 620.30 860.01 623.09 873.08 632.02 C 868.42 635.84 874.20 640.47 873.98 644.99 C 865.89 642.02 853.58 643.40 854.16 654.17 C 853.08 661.61 841.84 653.82 838.55 660.30 C 837.53 675.69 820.42 676.84 810.01 683.09 C 789.93 692.44 775.85 713.43 753.24 717.25 C 749.01 723.85 748.98 739.13 737.41 737.70 C 731.74 738.01 727.70 743.48 721.75 743.75 C 703.62 750.42 691.25 734.88 674.58 734.44 C 669.74 733.60 668.68 727.29 664.32 725.69 C 646.46 724.78 633.17 711.25 616.28 706.75 C 602.37 701.27 589.38 693.10 574.50 690.38 C 563.77 686.33 555.00 677.77 543.54 675.53 C 532.22 675.34 525.66 661.30 514.10 668.23 C 513.89 665.02 513.85 661.92 513.95 658.76 C 523.36 657.65 532.03 661.68 538.81 668.06 C 548.84 673.56 562.49 671.13 570.40 680.60 C 585.87 690.74 605.72 690.60 620.62 701.49 C 638.80 705.24 652.26 719.83 670.66 722.40 C 676.43 732.19 689.12 729.87 697.91 735.25 C 702.71 738.95 709.29 740.34 714.99 737.82 C 712.26 718.48 703.80 701.04 695.41 683.61 C 686.61 663.25 688.43 638.16 672.97 621.05 C 666.76 602.82 663.51 583.31 655.07 565.97 C 646.61 560.45 650.93 547.86 640.80 543.24 Z" />
<path fill="#ec411d" d=" M 333.06 549.26 C 350.96 544.78 360.63 563.05 373.24 571.82 C 407.29 601.11 440.89 631.68 474.93 660.30 C 474.91 661.06 474.88 662.59 474.86 663.36 C 430.86 628.10 390.84 588.42 346.29 553.64 C 332.90 548.89 331.70 565.81 328.03 573.95 C 326.29 602.41 304.19 624.87 303.62 653.62 C 290.82 666.07 291.28 685.45 282.43 700.41 C 276.32 711.57 281.95 730.47 269.44 737.57 C 257.26 741.07 243.09 736.32 237.24 724.74 C 224.70 715.30 209.32 709.70 198.56 698.50 C 183.61 693.87 175.48 678.58 160.94 673.08 C 149.74 668.89 143.46 656.86 131.33 654.60 C 123.56 653.47 122.89 643.46 115.47 641.59 C 114.09 640.46 112.78 639.23 111.61 637.90 C 131.32 626.81 155.51 623.60 175.13 611.24 C 184.44 607.43 195.49 607.66 203.04 600.14 C 230.68 591.85 256.25 577.99 284.06 570.13 C 299.00 559.67 317.60 558.72 333.06 549.26 Z" />
<path fill="#ed2c21" d=" M 328.03 573.95 C 331.70 565.81 332.90 548.89 346.29 553.64 C 390.84 588.42 430.86 628.10 474.86 663.36 C 474.89 663.82 474.94 664.74 474.97 665.20 C 472.64 664.96 470.33 664.56 468.09 663.88 C 462.95 655.07 451.65 652.83 447.55 643.41 C 441.56 638.94 437.14 632.07 429.41 630.53 C 409.02 606.88 384.03 589.76 360.33 569.59 C 356.49 565.11 344.20 551.97 340.41 562.44 C 337.00 567.44 344.24 574.16 337.76 577.72 C 330.68 583.78 334.09 594.23 331.15 602.13 C 324.36 619.62 313.68 635.82 310.51 654.55 C 302.91 670.72 303.14 689.74 293.12 705.15 C 285.39 716.06 280.24 728.41 281.07 742.09 C 276.80 751.68 264.15 750.25 255.35 750.94 C 250.14 743.70 240.10 742.91 233.41 737.61 C 225.45 730.30 217.06 723.17 207.07 718.82 C 200.71 714.58 198.64 704.00 189.84 703.16 C 175.49 701.72 170.31 685.27 156.96 681.14 C 143.76 677.02 137.67 662.70 124.29 659.71 C 119.31 657.21 119.60 646.47 111.94 648.73 C 112.64 646.14 113.96 643.77 115.47 641.59 C 122.89 643.46 123.56 653.47 131.33 654.60 C 143.46 656.86 149.74 668.89 160.94 673.08 C 175.48 678.58 183.61 693.87 198.56 698.50 C 209.32 709.70 224.70 715.30 237.24 724.74 C 243.09 736.32 257.26 741.07 269.44 737.57 C 281.95 730.47 276.32 711.57 282.43 700.41 C 291.28 685.45 290.82 666.07 303.62 653.62 C 304.19 624.87 326.29 602.41 328.03 573.95 Z" />
<path fill="#f01726" d=" M 340.41 562.44 C 344.20 551.97 356.49 565.11 360.33 569.59 C 384.03 589.76 409.02 606.88 429.41 630.53 C 437.14 632.07 441.56 638.94 447.55 643.41 C 451.65 652.83 462.95 655.07 468.09 663.88 C 461.52 667.61 455.44 672.73 447.22 671.29 C 440.43 671.36 439.04 680.08 433.31 682.26 C 409.31 684.55 390.30 701.95 367.16 707.13 C 359.07 707.73 357.16 719.47 347.95 716.82 C 325.71 713.69 314.38 739.54 293.08 740.07 C 289.06 740.67 284.96 740.84 281.07 742.09 C 280.24 728.41 285.39 716.06 293.12 705.15 C 303.14 689.74 302.91 670.72 310.51 654.55 C 313.68 635.82 324.36 619.62 331.15 602.13 C 334.09 594.23 330.68 583.78 337.76 577.72 C 344.24 574.16 337.00 567.44 340.41 562.44 Z" />
<path fill="#be2574" d=" M 854.16 654.17 C 853.58 643.40 865.89 642.02 873.98 644.99 C 879.21 655.01 883.84 667.09 883.86 679.03 C 885.88 708.10 890.31 739.52 878.66 767.09 C 874.72 758.00 863.33 764.01 856.05 763.03 C 811.91 755.25 764.80 756.59 721.75 743.75 C 727.70 743.48 731.74 738.01 737.41 737.70 C 748.98 739.13 749.01 723.85 753.24 717.25 C 775.85 713.43 789.93 692.44 810.01 683.09 C 820.42 676.84 837.53 675.69 838.55 660.30 C 841.84 653.82 853.08 661.61 854.16 654.17 Z" />
<path fill="#f01826" d=" M 111.94 648.73 C 119.60 646.47 119.31 657.21 124.29 659.71 C 137.67 662.70 143.76 677.02 156.96 681.14 C 170.31 685.27 175.49 701.72 189.84 703.16 C 198.64 704.00 200.71 714.58 207.07 718.82 C 217.06 723.17 225.45 730.30 233.41 737.61 C 240.10 742.91 250.14 743.70 255.35 750.94 C 234.13 746.23 214.23 756.00 193.02 757.11 C 172.27 760.26 150.86 757.03 130.12 761.12 C 121.87 764.81 113.09 762.80 105.06 759.86 C 94.74 724.41 88.82 681.41 111.94 648.73 Z" />
<path fill="#de1721" d=" M 447.22 671.29 C 455.44 672.73 461.52 667.61 468.09 663.88 C 470.33 664.56 472.64 664.96 474.97 665.20 C 475.05 668.34 475.19 671.62 474.92 674.80 C 464.57 675.03 455.96 683.28 445.07 680.98 C 439.58 692.68 426.34 689.18 417.18 695.23 C 400.03 703.26 383.35 713.05 364.39 715.38 C 359.11 727.98 345.54 722.88 335.98 728.90 C 314.27 746.52 284.99 750.21 258.57 756.54 C 215.15 757.29 172.81 765.40 129.98 766.94 C 123.22 768.49 116.07 769.27 110.07 772.98 C 108.06 768.80 104.52 764.73 105.06 759.86 C 113.09 762.80 121.87 764.81 130.12 761.12 C 150.86 757.03 172.27 760.26 193.02 757.11 C 214.23 756.00 234.13 746.23 255.35 750.94 C 264.15 750.25 276.80 751.68 281.07 742.09 C 284.96 740.84 289.06 740.67 293.08 740.07 C 314.38 739.54 325.71 713.69 347.95 716.82 C 357.16 719.47 359.07 707.73 367.16 707.13 C 390.30 701.95 409.31 684.55 433.31 682.26 C 439.04 680.08 440.43 671.36 447.22 671.29 Z" />
<path fill="#ad106a" d=" M 514.10 668.23 C 525.66 661.30 532.22 675.34 543.54 675.53 C 555.00 677.77 563.77 686.33 574.50 690.38 C 589.38 693.10 602.37 701.27 616.28 706.75 C 633.17 711.25 646.46 724.78 664.32 725.69 C 668.68 727.29 669.74 733.60 674.58 734.44 C 691.25 734.88 703.62 750.42 721.75 743.75 C 764.80 756.59 811.91 755.25 856.05 763.03 C 863.33 764.01 874.72 758.00 878.66 767.09 C 868.61 796.31 844.28 817.76 825.70 841.69 C 805.37 866.91 776.82 885.19 744.01 887.79 C 738.44 857.86 733.18 827.63 731.55 797.27 C 735.48 784.40 722.13 773.48 727.46 760.77 C 725.27 745.91 707.20 748.39 696.55 749.53 C 678.19 751.22 663.32 761.55 645.33 764.39 C 632.19 770.91 616.57 770.65 604.64 779.66 C 579.99 784.96 556.86 795.45 532.38 801.23 C 524.06 799.55 520.90 808.26 514.15 810.35 C 513.86 762.98 513.97 715.60 514.10 668.23 Z" />
<path fill="#cb171e" d=" M 445.07 680.98 C 455.96 683.28 464.57 675.03 474.92 674.80 C 474.99 724.27 475.17 773.75 474.83 823.22 C 466.91 812.17 452.92 818.75 445.03 808.00 C 419.27 799.10 392.05 794.39 365.68 787.22 C 351.27 776.19 333.25 771.32 315.61 768.39 C 297.54 758.83 275.52 756.25 255.88 761.75 C 226.02 761.33 197.15 767.94 167.60 769.63 C 149.87 775.45 128.42 765.29 112.91 778.26 C 111.64 776.69 110.74 774.86 110.07 772.98 C 116.07 769.27 123.22 768.49 129.98 766.94 C 172.81 765.40 215.15 757.29 258.57 756.54 C 284.99 750.21 314.27 746.52 335.98 728.90 C 345.54 722.88 359.11 727.98 364.39 715.38 C 383.35 713.05 400.03 703.26 417.18 695.23 C 426.34 689.18 439.58 692.68 445.07 680.98 Z" />
<path fill="#980e5e" d=" M 696.55 749.53 C 707.20 748.39 725.27 745.91 727.46 760.77 C 722.13 773.48 735.48 784.40 731.55 797.27 C 733.18 827.63 738.44 857.86 744.01 887.79 C 741.07 888.28 738.12 889.30 735.12 888.88 C 730.67 845.62 714.72 802.35 719.89 759.16 C 716.12 750.56 704.87 753.01 697.54 753.52 C 652.05 765.78 608.48 783.77 563.13 796.20 C 547.29 803.67 528.92 804.32 514.08 814.26 C 513.94 812.94 513.97 811.64 514.15 810.35 C 520.90 808.26 524.06 799.55 532.38 801.23 C 556.86 795.45 579.99 784.96 604.64 779.66 C 616.57 770.65 632.19 770.91 645.33 764.39 C 663.32 761.55 678.19 751.22 696.55 749.53 Z" />
<path fill="#800d54" d=" M 697.54 753.52 C 704.87 753.01 716.12 750.56 719.89 759.16 C 714.72 802.35 730.67 845.62 735.12 888.88 C 727.35 891.69 730.24 903.32 726.80 909.84 C 706.36 953.36 653.41 963.40 609.93 963.89 C 608.18 955.39 616.54 950.54 619.47 943.60 C 622.54 937.35 623.67 930.02 629.10 925.14 C 640.22 916.28 635.98 898.43 649.67 891.56 C 654.00 874.32 669.40 862.84 673.13 845.14 C 682.29 829.80 682.86 809.92 697.91 797.88 C 700.47 783.70 715.45 774.26 713.88 759.27 C 701.39 750.48 687.85 764.20 674.68 763.75 C 656.18 772.80 634.99 774.15 616.72 783.76 C 582.34 794.53 547.79 804.25 514.06 817.03 C 514.06 816.34 514.07 814.95 514.08 814.26 C 528.92 804.32 547.29 803.67 563.13 796.20 C 608.48 783.77 652.05 765.78 697.54 753.52 Z" />
<path fill="#6c1249" d=" M 674.68 763.75 C 687.85 764.20 701.39 750.48 713.88 759.27 C 715.45 774.26 700.47 783.70 697.91 797.88 C 682.86 809.92 682.29 829.80 673.13 845.14 C 669.40 862.84 654.00 874.32 649.67 891.56 C 635.98 898.43 640.22 916.28 629.10 925.14 C 623.67 930.02 622.54 937.35 619.47 943.60 C 616.54 950.54 608.18 955.39 609.93 963.89 C 607.73 966.31 601.66 964.95 597.86 965.90 C 600.92 959.34 600.00 950.87 605.79 945.84 C 619.27 935.33 617.96 915.47 629.03 903.10 C 641.28 889.80 643.45 871.84 651.17 856.19 C 657.80 851.11 665.60 847.00 666.94 837.86 C 675.69 824.79 680.18 809.54 686.08 795.08 C 691.71 785.10 701.51 777.86 706.95 767.91 C 706.42 757.09 693.13 765.09 687.34 765.38 C 678.19 764.89 671.55 770.38 663.90 773.91 C 643.04 776.82 624.04 786.27 604.55 793.54 C 583.62 795.29 565.70 805.80 545.16 809.23 C 538.47 818.41 524.49 813.08 518.28 821.41 C 519.86 850.58 514.15 880.78 520.04 909.12 C 515.33 903.08 513.43 894.65 513.96 887.01 C 514.12 863.68 513.84 840.35 514.06 817.03 C 547.79 804.25 582.34 794.53 616.72 783.76 C 634.99 774.15 656.18 772.80 674.68 763.75 Z" />
<path fill="#b91418" d=" M 255.88 761.75 C 275.52 756.25 297.54 758.83 315.61 768.39 C 333.25 771.32 351.27 776.19 365.68 787.22 C 392.05 794.39 419.27 799.10 445.03 808.00 C 452.92 818.75 466.91 812.17 474.83 823.22 C 475.20 846.79 474.97 870.39 474.94 893.99 C 474.60 916.75 455.41 931.93 440.25 946.25 C 427.41 961.61 407.75 968.63 388.83 972.82 C 394.00 962.68 381.81 960.56 376.20 955.63 C 375.50 951.33 384.74 943.10 376.49 942.44 C 371.92 938.26 366.09 950.53 363.84 943.05 C 369.31 937.27 367.10 928.33 360.46 924.57 C 350.96 920.76 356.96 907.00 347.22 903.66 C 339.02 882.68 330.78 860.78 315.74 843.32 C 308.66 838.06 311.66 827.85 307.09 820.98 C 298.39 810.47 295.45 796.32 284.72 787.22 C 279.58 780.13 285.68 768.34 277.66 763.30 C 273.00 761.02 266.10 763.40 264.10 768.09 C 266.08 776.51 269.42 785.91 262.29 793.18 C 258.31 798.65 268.26 800.78 269.88 805.74 C 266.16 809.11 257.79 811.84 259.87 818.05 C 264.65 827.83 253.34 836.44 257.85 846.81 C 250.29 853.61 259.96 866.72 249.61 870.54 C 246.86 872.09 242.23 871.92 240.96 875.10 C 242.50 883.34 248.35 890.02 251.45 897.58 C 227.54 892.15 203.69 883.99 183.99 869.02 C 152.75 845.94 130.44 812.36 112.91 778.26 C 128.42 765.29 149.87 775.45 167.60 769.63 C 197.15 767.94 226.02 761.33 255.88 761.75 Z" />
<path fill="#a70e15" d=" M 264.10 768.09 C 266.10 763.40 273.00 761.02 277.66 763.30 C 285.68 768.34 279.58 780.13 284.72 787.22 C 295.45 796.32 298.39 810.47 307.09 820.98 C 311.66 827.85 308.66 838.06 315.74 843.32 C 330.78 860.78 339.02 882.68 347.22 903.66 C 356.96 907.00 350.96 920.76 360.46 924.57 C 367.10 928.33 369.31 937.27 363.84 943.05 C 366.09 950.53 371.92 938.26 376.49 942.44 C 384.74 943.10 375.50 951.33 376.20 955.63 C 381.81 960.56 394.00 962.68 388.83 972.82 C 348.68 979.00 305.12 965.82 273.74 940.26 C 265.42 927.22 264.55 906.87 251.45 897.58 C 248.35 890.02 242.50 883.34 240.96 875.10 C 242.23 871.92 246.86 872.09 249.61 870.54 C 259.96 866.72 250.29 853.61 257.85 846.81 C 253.34 836.44 264.65 827.83 259.87 818.05 C 257.79 811.84 266.16 809.11 269.88 805.74 C 268.26 800.78 258.31 798.65 262.29 793.18 C 269.42 785.91 266.08 776.51 264.10 768.09 Z" />
<path fill="#5c123f" d=" M 687.34 765.38 C 693.13 765.09 706.42 757.09 706.95 767.91 C 701.51 777.86 691.71 785.10 686.08 795.08 C 680.18 809.54 675.69 824.79 666.94 837.86 C 665.60 847.00 657.80 851.11 651.17 856.19 C 643.45 871.84 641.28 889.80 629.03 903.10 C 617.96 915.47 619.27 935.33 605.79 945.84 C 600.00 950.87 600.92 959.34 597.86 965.90 C 572.53 965.67 550.81 949.57 535.84 930.17 C 530.90 922.92 521.88 918.29 520.04 909.12 C 514.15 880.78 519.86 850.58 518.28 821.41 C 524.49 813.08 538.47 818.41 545.16 809.23 C 565.70 805.80 583.62 795.29 604.55 793.54 C 624.04 786.27 643.04 776.82 663.90 773.91 C 671.55 770.38 678.19 764.89 687.34 765.38 Z" />
</svg>
