<?xml version="1.0" standalone="no"?>
<!DOCTYPE svg PUBLIC "-//W3C//DTD SVG 20010904//EN"
 "http://www.w3.org/TR/2001/REC-SVG-20010904/DTD/svg10.dtd">
<svg version="1.0" xmlns="http://www.w3.org/2000/svg"
 width="16.000000pt" height="16.000000pt" viewBox="0 0 16.000000 16.000000"
 preserveAspectRatio="xMidYMid meet">
<metadata>
Created by potrace 1.11, written by Peter Selinger 2001-2013
</metadata>
<g transform="translate(0.000000,16.000000) scale(0.002222,-0.002222)"
fill="#000000" stroke="none">
<path d="M4230 7144 c-19 -2 -80 -9 -135 -14 -130 -14 -179 -30 -297 -99 l-97
-56 -1 -3120 0 -3120 30 -63 c46 -98 213 -282 312 -345 126 -81 193 -91 449
-69 377 33 617 151 726 358 17 33 34 80 37 105 4 26 15 53 24 62 9 8 56 19
104 25 185 23 332 98 478 242 53 52 147 156 209 230 289 346 332 477 306 939
-8 134 -24 216 -59 294 -47 108 -48 108 38 197 253 265 400 589 447 983 7 59
9 180 6 310 -4 198 -7 225 -46 420 -109 544 -208 731 -468 883 -36 21 -68 47
-72 58 -4 12 -13 73 -20 136 -38 366 -116 568 -312 803 -85 102 -156 166 -301
269 -113 80 -145 93 -288 118 -116 21 -115 20 -207 143 -75 100 -304 230 -493
282 -93 25 -279 40 -370 29z"/>
<path d="M2735 7113 c-168 -14 -310 -50 -420 -105 -60 -30 -228 -189 -318
-299 -38 -47 -38 -47 -115 -54 -150 -13 -286 -63 -405 -149 -83 -59 -311 -293
-375 -385 -98 -141 -171 -390 -197 -676 -11 -122 -8 -117 -112 -191 -53 -37
-110 -82 -127 -99 -33 -33 -227 -368 -271 -469 -69 -156 -90 -359 -82 -791 6
-319 17 -431 63 -613 67 -270 199 -493 382 -642 34 -29 62 -56 62 -62 0 -6
-18 -43 -39 -82 -61 -111 -82 -185 -88 -316 -10 -203 30 -410 109 -565 194
-383 415 -638 660 -761 71 -36 289 -114 319 -114 44 0 97 -75 134 -190 32
-100 50 -125 124 -174 311 -207 683 -251 968 -115 73 35 269 209 337 300 84
111 76 -225 74 3289 l-3 3135 -70 42 c-38 24 -105 54 -148 68 -72 23 -91 25
-250 23 -95 -1 -190 -3 -212 -5z"/>
</g>
</svg>
